<?xml version="1.0" encoding="utf-8"?>
<!-- Generator: Adobe Illustrator 15.1.0, SVG Export Plug-In . SVG Version: 6.00 Build 0)  -->
<!DOCTYPE svg PUBLIC "-//W3C//DTD SVG 1.1//EN" "http://www.w3.org/Graphics/SVG/1.1/DTD/svg11.dtd">
<svg version="1.1" id="Layer_1" xmlns="http://www.w3.org/2000/svg" xmlns:xlink="http://www.w3.org/1999/xlink" x="0px" y="0px"
	 width="2120.263px" height="2839.466px" viewBox="0 0 2120.263 2839.466" enable-background="new 0 0 2120.263 2839.466"
	 xml:space="preserve">
<rect x="1212.901" y="1532.274" width="900" height="620"/>
<rect x="554.59" y="681.291" width="900" height="620"/>
<circle fill="#67CCE6" stroke="#000000" stroke-width="20" stroke-miterlimit="10" cx="109.847" cy="85" r="75"/>
<g>
	<g>
		
			<line fill="none" stroke="#000000" stroke-width="20" stroke-miterlimit="10" x1="109.847" y1="155.455" x2="109.847" y2="263.667"/>
		<g>
			<polygon points="83.925,244.006 109.847,255.019 135.769,244.006 109.847,305.455 			"/>
		</g>
	</g>
</g>
<text transform="matrix(1 0 0 1 91.665 110.7578)" font-family="'Helvetica'" font-size="54">1</text>
<text transform="matrix(1 0 0 1 0 373.6367)" font-family="'Helvetica'" font-size="54">Sign-Up</text>
<circle fill="#A8CF38" stroke="#000000" stroke-width="20" stroke-miterlimit="10" cx="335.461" cy="354.836" r="75"/>
<g>
	<g>
		
			<line fill="none" stroke="#000000" stroke-width="20" stroke-miterlimit="10" x1="417.365" y1="354.836" x2="525.577" y2="354.836"/>
		<g>
			<polygon points="505.917,380.758 516.93,354.836 505.917,328.915 567.365,354.836 			"/>
		</g>
	</g>
</g>
<text transform="matrix(1 0 0 1 319.7798 377.0942)" font-family="'Helvetica'" font-size="54">2</text>
<text transform="matrix(1 0 0 1 590.998 373.6367)" font-family="'Helvetica'" font-size="54">Add Data</text>
<circle fill="#D159A1" stroke="#000000" stroke-width="20" stroke-miterlimit="10" cx="928.834" cy="357.108" r="75"/>
<g>
	<g>
		
			<line fill="none" stroke="#000000" stroke-width="20" stroke-miterlimit="10" x1="928.834" y1="427.563" x2="928.834" y2="535.775"/>
		<g>
			<polygon points="902.913,516.115 928.834,527.127 954.756,516.115 928.834,577.563 			"/>
		</g>
	</g>
</g>
<text transform="matrix(1 0 0 1 916.7544 379.8662)" font-family="'Helvetica'" font-size="54">3</text>
<text transform="matrix(1 0 0 1 659.4902 653.1245)" font-family="'Helvetica'" font-size="54">Visualize your Database</text>
<g>
	
		<image overflow="visible" width="1112" height="741" xlink:href="intro_1.png"  transform="matrix(0.7496 0 0 0.7497 587 710)">
	</image>
</g>


<g>
	<line fill="#6D6E71" x1="690.356" y1="298.975" x2="690.356" y2="206.082"/>
	<g>
		
			<line fill="none" stroke="#8A8C8E" stroke-width="10" stroke-miterlimit="10" x1="690.356" y1="298.975" x2="690.356" y2="226.976"/>
		<g>
			<polygon fill="#8A8C8E" points="703.317,236.806 690.356,231.299 677.395,236.806 690.356,206.082 			"/>
		</g>
	</g>
</g>
<g>
	<g>
		
			<line fill="none" stroke="#8A8C8E" stroke-width="10" stroke-miterlimit="10" x1="600.31" y1="1016.041" x2="528.31" y2="1016.041"/>
		<g>
			<polygon fill="#8A8C8E" points="538.14,1003.08 532.634,1016.041 538.14,1029.001 507.416,1016.041 			"/>
		</g>
	</g>
</g>
<g>
	<g>
		
			<line fill="none" stroke="#8A8C8E" stroke-width="10" stroke-miterlimit="10" x1="1408.87" y1="1025.791" x2="1480.869" y2="1025.791"/>
		<g>
			<polygon fill="#8A8C8E" points="1471.039,1038.751 1476.546,1025.791 1471.039,1012.83 1501.764,1025.791 			"/>
		</g>
	</g>
</g>
<text transform="matrix(1 0 0 1 587.0391 183.6641)"><tspan x="0" y="0" fill="#8A8C8E" stroke="#8A8C8E" stroke-miterlimit="10" font-family="'Helvetica'" font-size="36">Add Categories</tspan><tspan x="249.402" y="0" fill="#6D6E71" stroke="#8A8C8E" font-family="'Helvetica'" font-size="36"> </tspan></text>
<text transform="matrix(1 0 0 1 189.4863 1001.6499)"><tspan x="0" y="0" fill="#8A8C8E" stroke="#8A8C8E" stroke-miterlimit="10" font-family="'Helvetica'" font-size="36">Click a Category</tspan><tspan x="-64.319" y="57.601" fill="#8A8C8E" stroke="#8A8C8E" font-family="'Helvetica'" font-size="36">to Expand the Diagram</tspan><tspan x="317.275" y="57.601" fill="#6D6E71" stroke="#8A8C8E" font-family="'Helvetica'" font-size="36"> </tspan></text>
<circle fill="#F26926" stroke="#000000" stroke-width="20" stroke-miterlimit="10" cx="1656.982" cy="1213.873" r="75"/>
<g>
	<g>
		
			<line fill="none" stroke="#000000" stroke-width="20" stroke-miterlimit="10" x1="1656.528" y1="1288.873" x2="1656.528" y2="1397.084"/>
		<g>
			<polygon points="1630.606,1377.424 1656.528,1388.437 1682.45,1377.424 1656.528,1438.873 			"/>
		</g>
	</g>
</g>
<text transform="matrix(1 0 0 1 1642.4023 1236.6304)" font-family="'Helvetica'" font-size="54">4</text>
<text transform="matrix(1 0 0 1 1542.4473 1016.0405)"><tspan x="0" y="0" fill="#8A8C8E" stroke="#8A8C8E" stroke-miterlimit="10" font-family="'Helvetica'" font-size="36">Click a Dataset</tspan><tspan x="2.039" y="57.601" fill="#8A8C8E" stroke="#8A8C8E" font-family="'Helvetica'" font-size="36">to View a Plot</tspan><tspan x="231.236" y="57.601" fill="#6D6E71" stroke="#8A8C8E" font-family="'Helvetica'" font-size="36"> </tspan></text>
<g>
	
		<image overflow="visible" width="1092" height="724" xlink:href="intro_2.png"  transform="matrix(0.75 0 0 0.78 1255 1560)">
	</image>
</g>
<text transform="matrix(1 0 0 1 1455.3164 1505.6265)" font-family="'Helvetica'" font-size="54">Plot your Datasets</text>
<circle fill="#E7E518" stroke="#000000" stroke-width="20" stroke-miterlimit="10" cx="1050.563" cy="1554.593" r="75"/>
<g>
	<g>
		
			<line fill="none" stroke="#000000" stroke-width="20" stroke-miterlimit="10" x1="1003.834" y1="1607.626" x2="927.316" y2="1684.145"/>
		<g>
			<polygon points="922.889,1651.914 933.431,1678.031 959.547,1688.573 897.768,1713.694 			"/>
		</g>
	</g>
</g>
<text transform="matrix(1 0 0 1 1035.9834 1577.3511)" font-family="'Helvetica'" font-size="54">5</text>
<text transform="matrix(1 0 0 1 335.7798 1713.6938)" font-family="'Helvetica'" font-size="54">Create a Dashboard</text>
<rect x="117.365" y="1757.274" width="900" height="620"/>
<g>
	
		<image overflow="visible" width="1091" height="738" xlink:href="intro_3.png"  transform="matrix(0.75 0 0 0.75 156 1790)">
	</image>
</g>
<g>
	<g>
		
			<line fill="none" stroke="#8A8C8E" stroke-width="10" stroke-miterlimit="10" x1="970.919" y1="2301.466" x2="1042.918" y2="2301.466"/>
		<g>
			<polygon fill="#8A8C8E" points="1033.088,2314.427 1038.595,2301.466 1033.088,2288.505 1063.813,2301.466 			"/>
		</g>
	</g>
</g>
<text transform="matrix(1 0 0 1 1092.8311 2291.4663)"><tspan x="0" y="0" fill="#8A8C8E" stroke="#8A8C8E" stroke-miterlimit="10" font-family="'Helvetica'" font-size="36">Position and </tspan><tspan x="9.36" y="57.601" fill="#8A8C8E" stroke="#8A8C8E" stroke-miterlimit="10" font-family="'Helvetica'" font-size="36">Resize </tspan><tspan x="122.878" y="57.601" fill="#8A8C8E" stroke="#8A8C8E" font-family="'Helvetica'" font-size="36">Plots</tspan></text>
<g>
	<g>
		
			<line fill="none" stroke="#8A8C8E" stroke-width="10" stroke-miterlimit="10" x1="1819.754" y1="2123.827" x2="1819.754" y2="2195.826"/>
		<g>
			<polygon fill="#8A8C8E" points="1806.793,2185.996 1819.754,2191.502 1832.715,2185.996 1819.754,2216.72 			"/>
		</g>
	</g>
</g>
<text transform="matrix(1 0 0 1 1712.3564 2274.4663)"><tspan x="0" y="0" fill="#8A8C8E" stroke="#8A8C8E" stroke-miterlimit="10" font-family="'Helvetica'" font-size="36">Adjust Colors</tspan><tspan x="2.448" y="57.601" fill="#8A8C8E" stroke="#8A8C8E" stroke-miterlimit="10" font-family="'Helvetica'" font-size="36">and Settings</tspan></text>
<line stroke="#000000" stroke-width="20" stroke-miterlimit="10" x1="0" y1="2505.466" x2="2112.901" y2="2505.466"/>
<polygon fill="#7ACBBF" stroke="#000000" stroke-width="20" stroke-miterlimit="10" points="177.016,2587.824 223.257,2667.469 
	176.996,2747.112 84.493,2747.109 38.251,2667.463 84.513,2587.821 "/>
<g>
	<g>
		
			<line fill="none" stroke="#000000" stroke-width="20" stroke-miterlimit="10" x1="227.82" y1="2667.466" x2="336.032" y2="2667.466"/>
		<g>
			<polygon points="316.372,2693.388 327.385,2667.466 316.372,2641.544 377.82,2667.466 			"/>
		</g>
	</g>
</g>
<text transform="matrix(1 0 0 1 111.665 2686.7573)" font-family="'Helvetica'" font-size="54">1</text>
<text transform="matrix(1 0 0 1 461.3164 2686.7573)" font-family="'Helvetica'" font-size="54">Plot3.com/plotSomething</text>
<line stroke="#000000" stroke-width="20" stroke-miterlimit="10" x1="7.361" y1="2829.466" x2="2120.263" y2="2829.466"/>
<g>
	<g>
		
			<line fill="none" stroke="#8A8C8E" stroke-width="10" stroke-miterlimit="10" x1="1148.366" y1="2667.466" x2="1220.365" y2="2667.466"/>
		<g>
			<polygon fill="#8A8C8E" points="1210.535,2680.427 1216.042,2667.466 1210.535,2654.505 1241.26,2667.466 			"/>
		</g>
	</g>
</g>
<text transform="matrix(1 0 0 1 1293.502 2659.4663)"><tspan x="0" y="0" fill="#8A8C8E" stroke="#8A8C8E" stroke-miterlimit="10" font-family="'Helvetica'" font-size="36">Make a Plot</tspan><tspan x="-39.742" y="57.601" fill="#8A8C8E" stroke="#8A8C8E" stroke-miterlimit="10" font-family="'Helvetica'" font-size="36">Skip the Sign-Up</tspan></text>
</svg>
