<?xml version="1.0" encoding="utf-8"?>
<!-- Generator: Adobe Illustrator 15.1.0, SVG Export Plug-In . SVG Version: 6.00 Build 0)  -->
<!DOCTYPE svg PUBLIC "-//W3C//DTD SVG 1.1//EN" "http://www.w3.org/Graphics/SVG/1.1/DTD/svg11.dtd">
<svg version="1.1" id="Layer_1" xmlns="http://www.w3.org/2000/svg" xmlns:xlink="http://www.w3.org/1999/xlink" x="0px" y="0px"
	 width="602px" height="31px" viewBox="0 0 602 31" enable-background="new 0 0 602 31" xml:space="preserve">
	<rect x="0.5" y="0.5" fill="#ff6600" stroke="#000000" stroke-miterlimit="10" width="30" height="30"/>
	<rect x="60.5" y="0.5" fill="#2a7fff" stroke="#000000" stroke-miterlimit="10" width="30" height="30"/>
	<rect x="90.5" y="0.5" fill="#6f7c91" stroke="#000000" stroke-miterlimit="10" width="30" height="30"/>
	<rect x="30.5" y="0.5" fill="#37c871" stroke="#000000" stroke-miterlimit="10" width="30" height="30"/>
	<rect x="120.5" y="0.5" fill="#00ffff" stroke="#000000" stroke-miterlimit="10" width="30" height="30"/>
	<rect x="180.5" y="0.5" fill="#ffff00" stroke="#000000" stroke-miterlimit="10" width="30" height="30"/>
	<rect x="210.5" y="0.5" fill="#ff7f2a" stroke="#000000" stroke-miterlimit="10" width="30" height="30"/>
	<rect x="150.5" y="0.5" fill="#ff2a2a" stroke="#000000" stroke-miterlimit="10" width="30" height="30"/>
	<rect x="240.5" y="0.5" fill="#5f5fd3" stroke="#000000" stroke-miterlimit="10" width="30" height="30"/>
	<rect x="270.5" y="0.5" fill="#8a6f91" stroke="#000000" stroke-miterlimit="10" width="30" height="30"/>
	<rect x="300.5" y="0.5" fill="#37c871" stroke="#000000" stroke-miterlimit="10" width="30" height="30"/>
	<rect x="360.5" y="0.5" fill="#8d5fd3" stroke="#000000" stroke-miterlimit="10" width="30" height="30"/>
	<rect x="390.5" y="0.5" fill="#87aade" stroke="#000000" stroke-miterlimit="10" width="30" height="30"/>
	<rect x="330.5" y="0.5" fill="#d3bc5f" stroke="#000000" stroke-miterlimit="10" width="30" height="30"/>
	<rect x="420.5" y="0.5" fill="#918a6f" stroke="#000000" stroke-miterlimit="10" width="30" height="30"/>
	<rect x="480.5" y="0.5" fill="#d35f5f" stroke="#000000" stroke-miterlimit="10" width="30" height="30"/>
	<rect x="510.5" y="0.5" fill="#8dd35f" stroke="#000000" stroke-miterlimit="10" width="30" height="30"/>
	<rect x="450.5" y="0.5" fill="#ff80b2" stroke="#000000" stroke-miterlimit="10" width="30" height="30"/>
	<rect x="540.5" y="0.5" fill="#93aca7" stroke="#000000" stroke-miterlimit="10" width="30" height="30"/>
	<rect x="570.5" y="0.5" fill="#37c871" stroke="#000000" stroke-miterlimit="10" width="30" height="30"/>
</svg>